<?xml version="1.0" encoding="UTF-8" ?>
<!DOCTYPE svg PUBLIC "-//W3C//DTD SVG 1.1//EN" "http://www.w3.org/Graphics/SVG/1.1/DTD/svg11.dtd">
<svg width="44pt" height="44pt" viewBox="0 0 44 44" version="1.1" xmlns="http://www.w3.org/2000/svg">
<g id="#ffffffff">
<path fill="#ffffff" opacity="1.00" d=" M 0.00 0.00 L 44.00 0.00 L 44.00 44.00 L 0.00 44.00 L 0.00 0.00 M 20.42 6.33 C 19.57 10.80 20.27 15.37 19.89 19.89 C 15.41 20.34 10.84 19.45 6.42 20.47 C 6.29 21.06 6.05 22.24 5.93 22.83 C 10.00 25.35 15.31 23.29 19.89 24.11 C 20.72 28.66 18.63 33.99 21.17 38.02 C 21.77 37.92 22.97 37.72 23.57 37.62 C 24.45 33.17 23.72 28.60 24.11 24.11 C 28.62 23.73 33.19 24.43 37.67 23.58 C 37.81 22.53 37.82 21.47 37.69 20.42 C 33.21 19.58 28.63 20.27 24.11 19.89 C 23.73 15.37 24.42 10.80 23.58 6.32 C 22.53 6.16 21.47 6.16 20.42 6.33 Z" />
</g>
<g id="#000000ff">
<path fill="#000000" opacity="1.00" d=" M 20.42 6.33 C 21.47 6.16 22.53 6.16 23.58 6.32 C 24.42 10.80 23.73 15.37 24.11 19.89 C 28.63 20.27 33.21 19.58 37.69 20.42 C 37.82 21.47 37.81 22.53 37.67 23.58 C 33.19 24.43 28.62 23.73 24.11 24.11 C 23.72 28.60 24.45 33.17 23.57 37.62 C 22.97 37.72 21.77 37.92 21.17 38.02 C 18.63 33.99 20.72 28.66 19.89 24.11 C 15.31 23.29 10.00 25.35 5.93 22.83 C 6.05 22.24 6.29 21.06 6.42 20.47 C 10.84 19.45 15.41 20.34 19.89 19.89 C 20.27 15.37 19.57 10.80 20.42 6.33 Z" />
</g>
</svg>
