<?xml version="1.0" encoding="UTF-8" ?>
<!DOCTYPE svg PUBLIC "-//W3C//DTD SVG 1.1//EN" "http://www.w3.org/Graphics/SVG/1.1/DTD/svg11.dtd">
<svg width="50pt" height="50pt" viewBox="0 0 50 50" version="1.1" xmlns="http://www.w3.org/2000/svg">
<g id="#ffffffff">
<path fill="#ffffff" opacity="1.00" d=" M 0.00 0.00 L 50.00 0.00 L 50.00 50.00 L 0.00 50.00 L 0.00 0.00 M 7.13 16.03 C 3.62 22.85 4.55 31.64 9.44 37.55 C 14.00 43.32 21.89 46.15 29.07 44.57 C 37.03 43.03 43.59 36.16 44.74 28.13 C 45.65 23.04 44.16 17.87 41.55 13.51 C 36.64 19.29 31.99 25.29 27.21 31.18 C 26.22 32.89 24.02 32.17 22.87 31.08 C 19.77 28.56 16.46 26.28 13.48 23.60 C 11.97 22.55 14.37 20.05 15.57 21.36 C 18.84 23.66 21.83 26.33 25.10 28.62 C 29.83 22.71 34.63 16.85 39.35 10.94 C 35.96 7.84 31.73 5.51 27.09 5.13 C 19.01 4.14 10.70 8.74 7.13 16.03 Z" />
</g>
<g id="#f9d100ff">
<path fill="#f9d100" opacity="1.00" d=" M 7.13 16.03 C 10.70 8.74 19.01 4.14 27.09 5.13 C 31.73 5.51 35.96 7.84 39.35 10.94 C 34.63 16.85 29.83 22.71 25.10 28.62 C 21.83 26.33 18.84 23.66 15.57 21.36 C 14.37 20.05 11.97 22.55 13.48 23.60 C 16.46 26.28 19.77 28.56 22.87 31.08 C 24.02 32.17 26.22 32.89 27.21 31.18 C 31.99 25.29 36.64 19.29 41.55 13.51 C 44.16 17.87 45.65 23.04 44.74 28.13 C 43.59 36.16 37.03 43.03 29.07 44.57 C 21.89 46.15 14.00 43.32 9.44 37.55 C 4.55 31.64 3.62 22.85 7.13 16.03 Z" />
</g>
</svg>
