<?xml version="1.0" encoding="UTF-8" ?>
<!DOCTYPE svg PUBLIC "-//W3C//DTD SVG 1.1//EN" "http://www.w3.org/Graphics/SVG/1.1/DTD/svg11.dtd">
<svg width="44pt" height="44pt" viewBox="0 0 44 44" version="1.1" xmlns="http://www.w3.org/2000/svg">
<g id="#ffffffff">
<path fill="#ffffff" opacity="1.00" d=" M 0.00 0.00 L 44.00 0.00 L 44.00 44.00 L 0.00 44.00 L 0.00 0.00 M 11.22 14.67 C 13.44 17.36 16.13 19.61 18.52 22.15 C 16.03 24.79 13.22 27.13 10.96 29.97 C 10.68 31.60 12.34 33.21 13.90 32.25 C 16.58 30.04 18.82 27.36 21.35 24.98 C 23.93 27.42 26.23 30.15 28.98 32.40 C 30.92 33.35 32.77 30.43 31.12 29.19 C 28.94 26.72 26.47 24.52 24.19 22.15 C 26.77 19.40 29.70 16.98 32.04 14.02 C 32.35 12.47 30.57 10.73 29.12 11.76 C 26.31 14.04 23.98 16.84 21.35 19.31 C 18.83 16.95 16.61 14.25 13.91 12.08 C 12.37 10.94 10.22 13.06 11.22 14.67 Z" />
</g>
<g id="#000000ff">
<path fill="#000000" opacity="1.00" d=" M 11.22 14.67 C 10.22 13.06 12.37 10.94 13.91 12.08 C 16.61 14.25 18.83 16.95 21.35 19.31 C 23.98 16.84 26.31 14.04 29.12 11.76 C 30.57 10.73 32.35 12.47 32.04 14.02 C 29.70 16.98 26.77 19.40 24.19 22.15 C 26.47 24.52 28.94 26.72 31.12 29.19 C 32.77 30.43 30.92 33.35 28.98 32.40 C 26.23 30.15 23.93 27.42 21.35 24.98 C 18.82 27.36 16.58 30.04 13.90 32.25 C 12.34 33.21 10.68 31.60 10.96 29.97 C 13.22 27.13 16.03 24.79 18.52 22.15 C 16.13 19.61 13.44 17.36 11.22 14.67 Z" />
</g>
</svg>
