<?xml version="1.0" encoding="UTF-8" ?>
<!DOCTYPE svg PUBLIC "-//W3C//DTD SVG 1.1//EN" "http://www.w3.org/Graphics/SVG/1.1/DTD/svg11.dtd">
<svg width="62pt" height="62pt" viewBox="0 0 62 62" version="1.1" xmlns="http://www.w3.org/2000/svg">
<g id="#ffffffff">
<path fill="#ffffff" opacity="1.00" d=" M 0.00 0.00 L 62.00 0.00 L 62.00 62.00 L 0.00 62.00 L 0.00 0.00 M 25.44 4.57 C 12.52 7.04 2.78 20.00 4.08 33.12 C 4.85 46.37 16.67 57.77 29.96 57.98 C 42.80 58.75 55.13 49.01 57.46 36.38 C 59.29 27.64 56.43 18.14 50.07 11.89 C 43.77 5.52 34.20 2.66 25.44 4.57 Z" />
<path fill="#ffffff" opacity="1.00" d=" M 25.45 6.64 C 38.15 3.40 52.18 12.03 55.19 24.74 C 57.14 32.20 55.44 40.54 50.55 46.54 C 45.90 52.43 38.50 56.04 30.99 55.98 C 23.71 56.03 16.52 52.64 11.87 47.04 C 6.19 40.45 4.46 30.74 7.49 22.58 C 10.25 14.67 17.28 8.46 25.45 6.64 M 18.08 34.41 C 17.95 37.61 17.99 40.80 18.01 43.99 C 21.22 44.01 24.43 44.04 27.63 43.93 C 34.44 36.87 41.57 30.12 48.33 23.03 C 45.52 19.63 42.39 16.47 38.98 13.68 C 31.92 20.50 25.14 27.60 18.08 34.41 Z" />
<path fill="#ffffff" opacity="1.00" d=" M 37.36 19.12 C 37.80 18.68 38.68 17.80 39.11 17.36 C 40.98 19.20 42.83 21.05 44.67 22.92 C 44.23 23.36 43.35 24.23 42.91 24.66 C 41.05 22.83 39.20 20.98 37.36 19.12 Z" />
<path fill="#ffffff" opacity="1.00" d=" M 22.37 34.13 C 26.67 29.80 30.99 25.47 35.33 21.18 C 37.18 23.01 39.02 24.86 40.85 26.71 C 36.56 31.04 32.24 35.35 27.91 39.66 C 26.05 37.83 24.20 35.99 22.37 34.13 Z" />
<path fill="#ffffff" opacity="1.00" d=" M 20.89 36.78 C 22.38 38.22 23.86 39.68 25.30 41.18 C 23.83 41.16 22.36 41.16 20.88 41.17 C 20.90 39.71 20.90 38.24 20.89 36.78 Z" />
</g>
<g id="#8f8f8fff">
<path fill="#8f8f8f" opacity="1.00" d=" M 25.44 4.57 C 34.20 2.66 43.77 5.52 50.07 11.89 C 56.43 18.14 59.29 27.64 57.46 36.38 C 55.13 49.01 42.80 58.75 29.96 57.98 C 16.67 57.77 4.85 46.37 4.08 33.12 C 2.78 20.00 12.52 7.04 25.44 4.57 M 25.45 6.64 C 17.28 8.46 10.25 14.67 7.49 22.58 C 4.46 30.74 6.19 40.45 11.87 47.04 C 16.52 52.64 23.71 56.03 30.99 55.98 C 38.50 56.04 45.90 52.43 50.55 46.54 C 55.44 40.54 57.14 32.20 55.19 24.74 C 52.18 12.03 38.15 3.40 25.45 6.64 Z" />
<path fill="#8f8f8f" opacity="1.00" d=" M 18.08 34.41 C 25.14 27.60 31.92 20.50 38.98 13.68 C 42.39 16.47 45.52 19.63 48.33 23.03 C 41.57 30.12 34.44 36.87 27.63 43.93 C 24.43 44.04 21.22 44.01 18.01 43.99 C 17.99 40.80 17.95 37.61 18.08 34.41 M 37.36 19.12 C 39.20 20.98 41.05 22.83 42.91 24.66 C 43.35 24.23 44.23 23.36 44.67 22.92 C 42.83 21.05 40.98 19.20 39.11 17.36 C 38.68 17.80 37.80 18.68 37.36 19.12 M 22.37 34.13 C 24.20 35.99 26.05 37.83 27.91 39.66 C 32.24 35.35 36.56 31.04 40.85 26.71 C 39.02 24.86 37.18 23.01 35.33 21.18 C 30.99 25.47 26.67 29.80 22.37 34.13 M 20.89 36.78 C 20.90 38.24 20.90 39.71 20.88 41.17 C 22.36 41.16 23.83 41.16 25.30 41.18 C 23.86 39.68 22.38 38.22 20.89 36.78 Z" />
</g>
</svg>
