<?xml version="1.0" encoding="UTF-8" ?>
<!DOCTYPE svg PUBLIC "-//W3C//DTD SVG 1.1//EN" "http://www.w3.org/Graphics/SVG/1.1/DTD/svg11.dtd">
<svg width="44pt" height="44pt" viewBox="0 0 44 44" version="1.1" xmlns="http://www.w3.org/2000/svg">
<g id="#ffffffff">
<path fill="#ffffff" opacity="1.00" d=" M 0.00 0.00 L 44.00 0.00 L 44.00 44.00 L 0.00 44.00 L 0.00 0.00 M 15.39 20.35 C 15.24 21.03 14.95 22.38 14.81 23.05 C 19.22 24.86 24.14 23.99 28.76 23.64 C 28.77 22.55 28.78 21.45 28.77 20.36 C 24.33 19.77 19.83 19.75 15.39 20.35 Z" />
</g>
<g id="#000000ff">
<path fill="#000000" opacity="1.00" d=" M 15.39 20.35 C 19.83 19.75 24.33 19.77 28.77 20.36 C 28.78 21.45 28.77 22.55 28.76 23.64 C 24.14 23.99 19.22 24.86 14.81 23.05 C 14.95 22.38 15.24 21.03 15.39 20.35 Z" />
</g>
</svg>
